PathFileType	4	(X/Y/Z)	D:\MotionData\Pi-Spi Study\20230118_AMCsubject1\Trimmed_right_horiz_abd01_rotated.trc
DataRate	CameraRate	NumFrames	NumMarkers	Units	OrigDataRate	OrigDataStartFrame	OrigNumFrames
200.00	200.00	       4	35	mm	200.00	101	       200
Frame#	Time	C7			Sternum			r_AMC1			r_AMC2			r_AMC3			l_AMC1			l_AMC2			l_AMC3			PX			T8			r_humerous			r_elbow_medial			r_elbow_lateral			r_forearm			r_wrist_radius			r_wrist_ulna			r_MCP_1			r_MCP_3			l_humerous			l_elbow_medial			l_elbow_lateral			l_forearm			l_wrist_radius			l_wrist_ulna			l_MCP_1			l_MCP_3			r_ASIS			r_PSIS			l_ASIS			l_PSIS			r_IC			l_IC			TS			AI			AA			
		X1	Y1	Z1	X2	Y2	Z2	X3	Y3	Z3	X4	Y4	Z4	X5	Y5	Z5	X6	Y6	Z6	X7	Y7	Z7	X8	Y8	Z8	X9	Y9	Z9	X10	Y10	Z10	X11	Y11	Z11	X12	Y12	Z12	X13	Y13	Z13	X14	Y14	Z14	X15	Y15	Z15	X16	Y16	Z16	X17	Y17	Z17	X18	Y18	Z18	X19	Y19	Z19	X20	Y20	Z20	X21	Y21	Z21	X22	Y22	Z22	X23	Y23	Z23	X24	Y24	Z24	X25	Y25	Z25	X26	Y26	Z26	X27	Y27	Z27	X28	Y28	Z28	X29	Y29	Z29	X30	Y30	Z30	X31	Y31	Z31	X32	Y32	Z32	X33	Y33	Z33	X34	Y34	Z34	X35	Y35	Z35	

101	0.5	215.2669	1376.988	-262.0803	342.5333	1309.349	-233.205	173.5017	1363.8961	-136.2772	200.2269	1387.3756	-101.2242	225.2447	1407.1409	-133.3012	241.2782	1314.1368	-409.2252	280.9089	1301.0831	-439.7962	306.1472	1336.1813	-410.487	378.0616	1113.1848	-200.3148	156.1703	1199.7833	-252.5349	235.9137	1367.6979	47.2347	201.1562	1281.9138	168.3752	158.3256	1324.1242	159.2038	114.3596	1341.3281	317.5237	111.8327	1366.0287	389.7533	108.3687	1314.3518	386.8847	94.2593	1371.3182	474.2978	97.1432	1323.8135	473.6828	344.8383	1106.1315	-417.8109	263.2445	978.8436	-408.0292	285.2683	975.7238	-459.5807	344.5679	827.8323	-474.065	387.5003	758.2532	-447.0065	348.1928	753.093	-469.0653	403.7271	681.2438	-454.8468	359.7512	676.8096	-472.0025	343.3822	906.0555	-63.3598	159.121	929.2321	-155.454	357.0478	889.8508	-324.417	165.1109	922.9787	-258.84	260.1578	971.7889	-41.8526	270.0801	937.0497	-366.9025	113.8204	1331.4344	-207.7131	98.5475	1235.6426	-176.012	129.7276	1367.163	-68.5685
102	0.505	215.2763	1377.0118	-262.0891	342.5131	1309.366	-233.2073	173.5209	1363.8956	-136.2582	200.2285	1387.4052	-101.2409	225.27	1407.1212	-133.3078	241.2245	1314.1925	-409.1357	280.9058	1301.0929	-439.8315	306.1245	1336.2262	-410.4061	378.5909	1113.3099	-200.1797	156.1515	1199.7772	-252.5651	235.8802	1367.714	47.2525	201.1935	1281.9072	168.3555	158.3579	1324.0817	159.2035	114.3798	1341.2842	317.5506	111.8684	1365.9817	389.7593	108.4183	1314.2985	386.9024	94.2958	1371.2668	474.3109	97.1968	1323.7635	473.6668	344.8407	1106.0478	-417.7495	263.2717	978.8378	-408.0419	285.2618	975.7401	-459.5787	344.5815	827.8421	-474.0906	387.4862	758.2614	-447.0125	348.0625	753.2686	-469.4346	403.7127	681.3724	-454.9305	359.7512	676.8119	-472.0066	343.3709	906.0542	-63.3583	159.1223	929.2349	-155.4768	357.0557	889.8484	-324.4398	165.1391	922.99	-258.8489	260.095	971.8211	-41.8532	270.1521	937.0017	-366.9314	113.8203	1331.4613	-207.6817	98.5852	1235.6656	-176.0333	129.7478	1367.2109	-68.5953
103	0.51	215.273	1377.0178	-262.0957	342.5449	1309.3556	-233.2132	173.5181	1363.9131	-136.269	200.2392	1387.3856	-101.258	225.2892	1407.1024	-133.3307	241.2642	1314.1434	-409.2133	280.9547	1301.0783	-439.8282	306.1806	1336.1356	-410.4876	378.1209	1113.1676	-200.3142	156.1594	1199.7847	-252.5639	235.9232	1367.6611	47.2407	201.2145	1281.8658	168.3607	158.3601	1324.035	159.2478	114.4187	1341.2353	317.5526	111.8886	1365.9202	389.7527	108.4537	1314.248	386.9223	94.3178	1371.231	474.3019	97.2295	1323.7175	473.6763	344.8238	1106.1057	-417.7897	263.2423	978.8505	-408.0459	285.2282	975.7268	-459.5478	344.5951	827.8091	-474.0615	387.5031	758.2722	-447.0179	348.8023	751.5788	-467.9731	403.7362	681.2468	-454.8123	359.7621	676.8226	-472.0035	343.3539	906.0593	-63.3452	159.1284	929.2381	-155.489	357.0691	889.8512	-324.4208	165.1534	923.0019	-258.8808	260.117	971.8316	-41.8614	270.2537	936.9557	-366.9561	113.8549	1331.4605	-207.7032	98.5972	1235.6907	-176.0157	129.7741	1367.212	-68.5929
104	0.515	215.2783	1376.9857	-262.0928	342.5286	1309.3739	-233.2065	173.5354	1363.918	-136.2734	200.2501	1387.4189	-101.2772	225.3201	1407.0657	-133.3439	241.2713	1314.1596	-409.2271	280.925	1301.0973	-439.8442	306.1811	1336.1818	-410.5002	378.1466	1113.1981	-200.3083	156.1627	1199.7931	-252.564	235.8966	1367.6819	47.2527	201.2825	1281.9093	168.404	158.3877	1323.9973	159.2281	114.4394	1341.1879	317.5485	111.9115	1365.8649	389.7636	108.5074	1314.1957	386.9336	94.3471	1371.1636	474.3165	97.2873	1323.6666	473.6784	344.8456	1106.079	-417.798	263.2697	978.8574	-408.0497	285.2414	975.7264	-459.5716	344.4573	827.9573	-474.1043	387.4872	758.2574	-447.0111	348.0394	753.2995	-469.4404	403.669	681.4943	-455.0675	359.734	676.8315	-472.0226	343.3405	906.0256	-63.3566	159.1296	929.2332	-155.4925	357.0699	889.8525	-324.4097	165.1584	922.9893	-258.8866	260.0846	971.8275	-41.8634	270.0344	937.0889	-366.9628	113.8546	1331.4899	-207.7091	98.6307	1235.6744	-176.0167	129.7807	1367.2688	-68.6127
